<svg width="362" height="96" viewBox="0 0 362 96" fill="none" xmlns="http://www.w3.org/2000/svg">
<g clip-path="url(#clip0_2970_3657)">
<path fill-rule="evenodd" clip-rule="evenodd" d="M148.426 25.9709H139.692V30.081C139.692 33.0351 138.087 35.2829 134.747 35.2829H133.142V43.8242H138.793V57.5032C138.793 63.8611 142.839 67.7785 149.454 67.7785C152.536 67.7785 154.142 67.0721 154.527 66.8795V58.7876C153.949 58.9161 152.986 59.1087 151.958 59.1087C149.839 59.1087 148.426 58.4023 148.426 55.7693V43.8242H154.656V35.2829H148.426V25.9709ZM168.656 47.4206H181.436C181.307 44.9802 179.637 42.026 175.014 42.026C170.903 42.026 168.848 45.0444 168.656 47.4206ZM182.142 55.7051L190.298 58.017C188.757 63.54 183.683 68.1639 175.592 68.1639C166.793 68.1639 158.958 61.8702 158.958 51.1454C158.958 40.8701 166.601 34.3195 174.885 34.3195C184.775 34.3195 190.876 40.4205 190.876 50.6958C190.876 52.0445 190.748 53.5215 190.683 53.7142H168.463C168.656 57.3106 171.931 59.8794 175.72 59.8794C179.252 59.8794 181.243 58.2097 182.142 55.7051ZM217.463 35.2829C216.821 35.0902 215.858 34.9618 214.895 34.9618C212.326 34.9618 208.28 35.9893 206.61 39.5857V35.2829H197.17V67.2006H206.931V53.2647C206.931 46.9068 210.463 44.5949 214.381 44.5949C215.344 44.5949 216.372 44.6591 217.463 44.916V35.2829ZM232.812 67.2006V48.8334C232.812 45.9435 234.675 43.3105 238.078 43.3105C241.61 43.3105 243.216 45.6866 243.216 48.705V67.2006H252.849V48.7692C252.849 45.9435 254.711 43.3105 258.179 43.3105C261.647 43.3105 263.253 45.6866 263.253 48.705V67.2006H272.693V46.5215C272.693 37.8517 266.913 34.3195 260.877 34.3195C256.574 34.3195 253.491 35.7324 250.987 39.3288C249.381 36.182 246.106 34.3195 241.546 34.3195C238.078 34.3195 233.968 36.1177 232.363 38.9434V35.2829H223.051V67.2006H232.812ZM290.675 67.2006V35.2829H280.914V67.2006H290.675ZM280.079 25.5213C280.079 28.6681 282.647 31.237 285.73 31.237C288.941 31.237 291.51 28.6681 291.51 25.5213C291.51 22.3745 288.941 19.8057 285.73 19.8057C282.647 19.8057 280.079 22.3745 280.079 25.5213ZM319.831 67.2006H329.207C329.143 66.6868 328.886 64.3748 328.886 61.4849V35.2829H319.125V53.4573C319.125 56.6684 317.07 58.9161 313.795 58.9161C310.327 58.9161 308.657 56.4757 308.657 53.3931V35.2829H298.895V55.4482C298.895 62.2556 303.262 67.907 311.033 67.907C314.244 67.907 317.905 66.751 319.574 63.9895C319.574 64.8244 319.703 66.6226 319.831 67.2006ZM334.859 58.1454C335.116 61.6776 338.327 68.1639 348.345 68.1639C356.887 68.1639 361.061 62.8336 361.061 57.3748C361.061 52.6867 357.85 48.705 351.235 47.3564L346.997 46.5215C345.584 46.2646 344.492 45.494 344.492 44.1453C344.492 42.4756 346.098 41.3838 347.96 41.3838C350.914 41.3838 352.263 43.182 352.52 45.3013L360.611 43.8242C360.29 40.0994 357.079 34.3195 347.832 34.3195C340.703 34.3195 335.565 39.0719 335.565 44.916C335.565 49.4114 338.263 53.2647 345.07 54.7417L348.731 55.5766C351.107 56.0904 351.877 57.0537 351.877 58.2097C351.877 59.6225 350.657 60.9712 348.153 60.9712C344.813 60.9712 343.272 58.8519 343.143 56.6684L334.859 58.1454Z" fill="white"/>
<path d="M83.1466 81.8508C82.7651 81.8508 82.3825 81.843 81.9995 81.8274C76.5929 90.0355 67.4277 95.0299 57.4877 95.0299V87.5439C65.5183 87.5439 72.8604 83.1765 76.7041 76.116L77.9282 73.8674L80.4676 74.1931C81.3565 74.3071 82.2576 74.3648 83.1466 74.3648C94.6575 74.3648 104.028 64.9939 104.028 53.4831C104.028 47.31 101.164 41.2635 96.3769 37.3292L94.9005 36.116L95.0173 34.2087C95.0415 33.8131 95.0538 33.4105 95.0538 33.012C95.0538 21.9656 86.0605 12.9724 75.0138 12.9724C71.0348 12.9724 67.2019 14.134 63.8954 16.3408L61.1086 18.201L58.9525 15.6363C55.1245 11.0829 49.5528 8.48596 43.6073 8.48596C32.5608 8.48596 23.5681 17.479 23.5681 28.5256C23.5681 28.8341 23.5754 29.1461 23.5898 29.455L23.709 31.9975L21.3882 33.0429C13.8436 36.4413 8.98596 43.9501 8.98596 52.2212C8.98596 63.8095 18.4194 73.2433 30.0074 73.2433C31.2393 73.2433 32.4741 73.1358 33.6792 72.9236L36.4899 72.4288L37.7111 75.0082C41.3206 82.6318 49.0678 87.5439 57.4877 87.5439V95.0299C47.0953 95.0299 37.4918 89.4783 32.2394 80.6425C31.4971 80.7002 30.7519 80.7293 30.0074 80.7293C14.285 80.7293 1.5 67.9439 1.5 52.2212C1.5 41.8327 7.1483 32.3343 16.1078 27.3279C16.7367 12.7007 28.8277 1 43.6073 1C50.6922 1 57.4091 3.6968 62.4923 8.49786C66.3555 6.51991 70.6268 5.4864 75.0138 5.4864C90.1193 5.4864 102.417 17.7087 102.539 32.7857C108.2 38.1163 111.514 45.6937 111.514 53.4831C111.514 69.1283 98.7919 81.8508 83.1466 81.8508ZM71.7073 57.596C69.1652 58.5685 66.6622 59.061 64.2546 59.061C61.8388 59.061 59.4556 58.5657 57.1781 57.5917C57.0862 57.5535 57.0862 57.5535 56.9945 57.5144C56.1552 57.1532 55.7957 56.7183 55.7957 55.764V54.4896C55.7957 53.369 56.4414 52.6477 57.4935 52.6477L57.7293 52.6797L57.7921 52.7041C59.8753 53.5257 62.048 53.9421 64.2508 53.9421C66.4625 53.9421 68.7782 53.5227 71.1329 52.6942L71.3445 52.6477H71.4035C72.4559 52.6477 73.1016 53.3689 73.1016 54.4896V55.764C73.1016 56.7782 72.7535 57.146 71.7809 57.5645L71.7073 57.596ZM40.4963 45.378C39.7817 45.528 39.2489 46.094 39.2489 47.1211V49.2575C39.2489 50.0645 39.7443 50.6188 40.5154 50.6188C40.6958 50.6188 40.8811 50.5887 41.0891 50.5272L53.3959 46.5461C54.3302 46.2347 54.843 45.4851 54.843 44.4589V42.684C54.843 41.6575 54.3296 40.9083 53.3967 40.5974L41.1158 36.6244C40.8978 36.5422 40.6796 36.4964 40.4691 36.4964C39.818 36.4964 39.2489 36.9046 39.2489 37.8526V40.0218C39.2489 41.0095 39.7648 41.574 40.48 41.7612L47.3773 43.5716L40.4963 45.378Z" fill="white"/>
<path d="M57.4877 95.0299C67.4277 95.0299 76.5929 90.0355 81.9995 81.8274C82.3825 81.843 82.7651 81.8508 83.1466 81.8508C98.7919 81.8508 111.514 69.1283 111.514 53.4831C111.514 45.6937 108.2 38.1163 102.539 32.7857C102.417 17.7087 90.1193 5.4864 75.0138 5.4864C70.6268 5.4864 66.3555 6.51991 62.4923 8.49786C57.4091 3.6968 50.6922 1 43.6073 1C28.8277 1 16.7367 12.7007 16.1078 27.3279C7.1483 32.3343 1.5 41.8327 1.5 52.2212C1.5 67.9439 14.285 80.7293 30.0074 80.7293C30.7519 80.7293 31.4971 80.7002 32.2394 80.6425C37.4918 89.4783 47.0953 95.0299 57.4877 95.0299ZM57.4877 95.0299V87.5439M57.4877 87.5439C65.5183 87.5439 72.8604 83.1765 76.7041 76.116L77.9282 73.8674L80.4676 74.1931C81.3565 74.3071 82.2576 74.3648 83.1466 74.3648C94.6575 74.3648 104.028 64.9939 104.028 53.4831C104.028 47.31 101.164 41.2635 96.3769 37.3292L94.9005 36.116L95.0173 34.2087C95.0415 33.8131 95.0538 33.4105 95.0538 33.012C95.0538 21.9656 86.0605 12.9724 75.0138 12.9724C71.0348 12.9724 67.2019 14.134 63.8954 16.3408L61.1086 18.201L58.9525 15.6363C55.1245 11.0829 49.5528 8.48596 43.6073 8.48596C32.5608 8.48596 23.5681 17.479 23.5681 28.5256C23.5681 28.8341 23.5754 29.1461 23.5898 29.455L23.709 31.9975L21.3882 33.0429C13.8436 36.4413 8.98596 43.9501 8.98596 52.2212C8.98596 63.8095 18.4194 73.2433 30.0074 73.2433C31.2393 73.2433 32.4741 73.1358 33.6792 72.9236L36.4899 72.4288L37.7111 75.0082C41.3206 82.6318 49.0678 87.5439 57.4877 87.5439ZM71.7073 57.596C69.1652 58.5685 66.6622 59.061 64.2546 59.061C61.8388 59.061 59.4556 58.5657 57.1781 57.5917C57.0862 57.5535 57.0862 57.5535 56.9945 57.5144C56.1552 57.1532 55.7957 56.7183 55.7957 55.764V54.4896C55.7957 53.369 56.4414 52.6477 57.4935 52.6477L57.7293 52.6797L57.7921 52.7041C59.8753 53.5257 62.048 53.9421 64.2508 53.9421C66.4625 53.9421 68.7782 53.5227 71.1329 52.6942L71.3445 52.6477H71.4035C72.4559 52.6477 73.1016 53.3689 73.1016 54.4896V55.764C73.1016 56.7782 72.7535 57.146 71.7809 57.5645L71.7073 57.596ZM40.4963 45.378C39.7817 45.528 39.2489 46.094 39.2489 47.1211V49.2575C39.2489 50.0645 39.7443 50.6188 40.5154 50.6188C40.6958 50.6188 40.8811 50.5887 41.0891 50.5272L53.3959 46.5461C54.3302 46.2347 54.843 45.4851 54.843 44.4589V42.684C54.843 41.6575 54.3296 40.9083 53.3967 40.5974L41.1158 36.6244C40.8978 36.5422 40.6796 36.4964 40.4691 36.4964C39.818 36.4964 39.2489 36.9046 39.2489 37.8526V40.0218C39.2489 41.0095 39.7648 41.574 40.48 41.7612L47.3773 43.5716L40.4963 45.378Z" stroke="white" stroke-width="0.5"/>
</g>
<defs>
<clipPath id="clip0_2970_3657">
<rect width="361" height="96" fill="white" transform="translate(0.5)"/>
</clipPath>
</defs>
</svg>
