<svg width="140" height="30" viewBox="-2 -2 140 30" fill="none" xmlns="http://www.w3.org/2000/svg">
  <!-- Outline layer: white stroke only (drawn under the original black mark) -->
  <g
    fill="none"
    stroke="white"
    stroke-width="2.5"
    stroke-linejoin="round"
    stroke-linecap="round"
  >
    <path d="M13 0C20.1796 0 26 5.82039 26 13C26 20.18 20.1796 26 13 26C5.82039 26 0 20.18 0 13C1.28855e-07 5.82039 5.82039 1.28859e-07 13 0ZM12.0322 5.26562C11.5072 5.26562 11.2445 5.26606 11.0439 5.36816C10.8675 5.45807 10.7237 5.60188 10.6338 5.77832C10.5318 5.97885 10.5312 6.24179 10.5312 6.7666V9.74219C10.5312 9.87329 10.5313 9.93939 10.5479 10C10.5625 10.0536 10.5868 10.1042 10.6191 10.1494C10.6558 10.2005 10.7068 10.2425 10.8086 10.3252L11.5615 10.9365C11.6842 11.0362 11.7453 11.0865 11.7676 11.1465C11.787 11.199 11.7871 11.257 11.7676 11.3096C11.7451 11.3694 11.6839 11.4191 11.5615 11.5186L10.8086 12.1299C10.7068 12.2126 10.6558 12.2546 10.6191 12.3057C10.5868 12.3509 10.5625 12.4015 10.5479 12.4551C10.5313 12.5157 10.5312 12.5817 10.5312 12.7129L10.5313 19.2334C10.5313 19.7586 10.5316 20.0221 10.6338 20.2227C10.7237 20.3989 10.8676 20.542 11.0439 20.6318C11.2445 20.7339 11.5072 20.7344 12.0322 20.7344H13.9678C14.4928 20.7344 14.7555 20.734 14.9561 20.6318C15.1324 20.542 15.2763 20.3989 15.3662 20.2227C15.4684 20.0221 15.4688 19.7586 15.4688 19.2334V16.2578C15.4688 16.1267 15.4687 16.0606 15.4521 16C15.4375 15.9464 15.4132 15.8958 15.3809 15.8506C15.3442 15.7995 15.2932 15.7575 15.1914 15.6748L14.4385 15.0635C14.3159 14.9639 14.2538 14.9144 14.2314 14.8545C14.2119 14.8019 14.2119 14.7431 14.2314 14.6904C14.2538 14.6305 14.3159 14.581 14.4385 14.4814L15.1914 13.8701C15.2932 13.7874 15.3442 13.7454 15.3809 13.6943C15.4132 13.6491 15.4375 13.5985 15.4521 13.5449C15.4687 13.4843 15.4688 13.4183 15.4688 13.2871V6.7666C15.4688 6.2418 15.4682 5.97885 15.3662 5.77832C15.2763 5.60188 15.1325 5.45807 14.9561 5.36816C14.7555 5.26606 14.4928 5.26562 13.9678 5.26562H12.0322Z"/>
    <path d="M36.4358 20.7765C36.5646 20.7765 36.669 20.6721 36.669 20.5433V5.27276C36.669 5.14396 36.5646 5.03955 36.4358 5.03955H34.1854C34.102 5.03955 34.0257 5.08468 33.9799 5.15435C33.4639 5.93895 32.5044 6.33414 31.1895 6.37528C31.0608 6.37931 30.9561 6.48328 30.9561 6.61208V8.89605C30.9561 9.02485 31.0605 9.12926 31.1893 9.12926H33.008C33.1368 9.12926 33.2412 9.23367 33.2412 9.36246V20.5433C33.2412 20.6721 33.3457 20.7765 33.4745 20.7765H36.4358Z"/>
    <path d="M45.4202 8.19652C46.6342 8.19652 47.6102 8.84226 47.6102 10.4686C47.6102 12.0471 46.6342 12.7406 45.4202 12.7406H42.7779V8.19652H45.4202ZM45.4202 15.6824C48.9908 15.6824 51.0617 13.506 51.0617 10.3729C51.0617 7.40728 48.9908 5.23088 45.4202 5.23088H39.6072C39.4784 5.23088 39.374 5.33529 39.374 5.46409V20.5433C39.374 20.6721 39.4784 20.7765 39.6072 20.7765H42.5447C42.6735 20.7765 42.7779 20.6721 42.7779 20.5433V15.9156C42.7779 15.7868 42.8823 15.6824 43.0111 15.6824H45.4202Z"/>
    <path d="M56.3414 18.5762C55.3416 18.5762 54.7227 18.1218 54.7227 17.3087C54.7227 16.5912 55.1512 16.1128 56.1748 16.1128H58.9599V16.352C58.9599 17.7392 57.7697 18.5762 56.3414 18.5762ZM59.2217 20.5433C59.2217 20.6721 59.3261 20.7765 59.4549 20.7765H62.0116C62.1404 20.7765 62.2448 20.6721 62.2448 20.5433V13.793C62.2448 10.5403 60.4119 8.65093 57.1031 8.65093C54.6465 8.65093 52.7656 9.96362 51.9944 12.074C51.9481 12.2007 52.025 12.3374 52.1561 12.3695L54.732 13.0013C54.8484 13.0298 54.9667 12.9652 55.012 12.8543C55.4032 11.8969 56.0545 11.3296 57.1031 11.3296C58.1981 11.3296 58.9599 12.0471 58.9599 13.3385V13.506C58.9599 13.8647 58.8408 14.0082 58.4124 14.0082H55.4369C52.9612 14.0082 51.4616 15.3236 51.4616 17.4043C51.4616 19.6286 53.1755 21.0635 55.5559 21.0635C56.7536 21.0635 57.9044 20.6697 58.7154 19.7926C58.8748 19.6202 59.2217 19.7253 59.2217 19.9601V20.5433Z"/>
    <path d="M68.5782 18.6719C67.4214 18.6719 66.5765 18.1915 66.16 17.3088C66.1094 17.2016 65.992 17.1393 65.8772 17.1684L63.4695 17.7782C63.3457 17.8096 63.2695 17.9352 63.3063 18.0574C63.9158 20.083 65.9546 21.0635 68.4592 21.0635C71.6727 21.0635 73.5056 19.4133 73.5056 17.1652C73.5056 12.8124 66.6263 14.2952 66.6263 12.1427C66.6263 11.4252 67.2214 10.9708 68.2925 10.9708C69.3586 10.9708 70.0724 11.5538 70.4146 12.4478C70.457 12.5587 70.5707 12.6283 70.6874 12.6062L73.1448 12.1407C73.2762 12.1158 73.3602 11.9854 73.3223 11.8571C72.7587 9.95281 71.1744 8.65093 68.3163 8.65093C65.1742 8.65093 63.5079 10.3251 63.5079 12.4297C63.5079 16.926 70.4111 15.5867 70.4111 17.4522C70.4111 18.1936 69.7922 18.6719 68.5782 18.6719Z"/>
    <path d="M79.2724 18.6719C78.1156 18.6719 77.2707 18.1915 76.8541 17.3088C76.8036 17.2016 76.6862 17.1393 76.5713 17.1684L74.1636 17.7782C74.0398 17.8096 73.9636 17.9352 74.0004 18.0574C74.61 20.083 76.6488 21.0635 79.1533 21.0635C82.3669 21.0635 84.1998 19.4133 84.1998 17.1652C84.1998 12.8124 77.3204 14.2952 77.3204 12.1427C77.3204 11.4252 77.9155 10.9708 78.9867 10.9708C80.0528 10.9708 80.7666 11.5538 81.1088 12.4478C81.1512 12.5587 81.2649 12.6283 81.3816 12.6062L83.8389 12.1407C83.9703 12.1158 84.0544 11.9854 84.0164 11.8571C83.4528 9.95281 81.8686 8.65093 79.0105 8.65093C75.8684 8.65093 74.2021 10.3251 74.2021 12.4297C74.2021 16.926 81.1053 15.5867 81.1053 17.4522C81.1053 18.1936 80.4864 18.6719 79.2724 18.6719Z"/>
    <path d="M87.209 20.5985C87.2344 20.703 87.328 20.7765 87.4356 20.7765H91.138C91.2463 20.7765 91.3403 20.7021 91.3651 20.5967L93.2509 12.5732L95.1368 20.5967C95.1615 20.7021 95.2556 20.7765 95.3638 20.7765H99.1856C99.293 20.7765 99.3866 20.7032 99.4121 20.5989L102.202 9.22669C102.238 9.07976 102.127 8.93793 101.975 8.93793H99.3442C99.2336 8.93793 99.1383 9.0156 99.1159 9.1239L97.25 18.1457L94.9383 9.11331C94.9119 9.01011 94.8189 8.93793 94.7124 8.93793H91.7689C91.6609 8.93793 91.567 9.01209 91.542 9.11717L89.3947 18.1457L87.5522 9.12447C87.5301 9.0159 87.4346 8.93793 87.3237 8.93793H84.6687C84.5176 8.93793 84.4064 9.07944 84.4421 9.22626L87.209 20.5985Z"/>
    <path d="M108.491 21.0635C112.062 21.0635 114.513 18.2892 114.513 14.8692C114.513 11.4252 112.062 8.65093 108.491 8.65093C104.944 8.65093 102.468 11.4252 102.468 14.8692C102.468 18.2892 104.944 21.0635 108.491 21.0635ZM108.491 18.2175C107.015 18.2175 105.872 16.9738 105.872 14.8692C105.872 12.7646 107.015 11.497 108.491 11.497C109.967 11.497 111.133 12.7646 111.133 14.8692C111.133 16.9738 109.967 18.2175 108.491 18.2175Z"/>
    <path d="M119.208 14.5104C119.208 12.4776 120.232 11.9992 121.803 11.9992C122.104 11.9992 122.435 12.0291 122.749 12.089C122.882 12.1143 123.013 12.0294 123.037 11.8962L123.535 9.07969C123.553 8.98077 123.506 8.88046 123.413 8.84108C123.127 8.71911 122.773 8.65093 122.351 8.65093C120.756 8.65093 119.518 9.58367 118.923 11.4731V9.17113C118.923 9.04234 118.818 8.93793 118.69 8.93793H116.109C115.98 8.93793 115.876 9.04234 115.876 9.17113V20.5433C115.876 20.6721 115.98 20.7765 116.109 20.7765H118.975C119.104 20.7765 119.208 20.6721 119.208 20.5433V14.5104Z"/>
    <path d="M129.694 18.2892C127.98 18.2892 127.076 16.8782 127.076 14.8692C127.076 12.8602 127.98 11.4252 129.694 11.4252C131.408 11.4252 132.313 12.8602 132.313 14.8692C132.313 16.8782 131.408 18.2892 129.694 18.2892ZM132.503 20.5433C132.503 20.6721 132.608 20.7765 132.736 20.7765H135.412C135.541 20.7765 135.645 20.6721 135.645 20.5433V5.49887C135.645 5.37007 135.541 5.26566 135.412 5.26566H132.641C132.512 5.26566 132.408 5.37007 132.408 5.49887V10.5882C131.67 9.20101 130.432 8.65093 128.861 8.65093C125.791 8.65093 123.696 11.3296 123.696 14.8692C123.696 18.4088 125.791 21.0635 128.861 21.0635C130.528 21.0635 131.813 20.3939 132.503 18.6719V20.5433Z"/>
  </g>
  <!-- Original black mark on top: same paths, no stroke — letter weight unchanged -->
  <g fill="black">
    <path d="M13 0C20.1796 0 26 5.82039 26 13C26 20.18 20.1796 26 13 26C5.82039 26 0 20.18 0 13C1.28855e-07 5.82039 5.82039 1.28859e-07 13 0ZM12.0322 5.26562C11.5072 5.26562 11.2445 5.26606 11.0439 5.36816C10.8675 5.45807 10.7237 5.60188 10.6338 5.77832C10.5318 5.97885 10.5312 6.24179 10.5312 6.7666V9.74219C10.5312 9.87329 10.5313 9.93939 10.5479 10C10.5625 10.0536 10.5868 10.1042 10.6191 10.1494C10.6558 10.2005 10.7068 10.2425 10.8086 10.3252L11.5615 10.9365C11.6842 11.0362 11.7453 11.0865 11.7676 11.1465C11.787 11.199 11.7871 11.257 11.7676 11.3096C11.7451 11.3694 11.6839 11.4191 11.5615 11.5186L10.8086 12.1299C10.7068 12.2126 10.6558 12.2546 10.6191 12.3057C10.5868 12.3509 10.5625 12.4015 10.5479 12.4551C10.5313 12.5157 10.5312 12.5817 10.5312 12.7129L10.5313 19.2334C10.5313 19.7586 10.5316 20.0221 10.6338 20.2227C10.7237 20.3989 10.8676 20.542 11.0439 20.6318C11.2445 20.7339 11.5072 20.7344 12.0322 20.7344H13.9678C14.4928 20.7344 14.7555 20.734 14.9561 20.6318C15.1324 20.542 15.2763 20.3989 15.3662 20.2227C15.4684 20.0221 15.4688 19.7586 15.4688 19.2334V16.2578C15.4688 16.1267 15.4687 16.0606 15.4521 16C15.4375 15.9464 15.4132 15.8958 15.3809 15.8506C15.3442 15.7995 15.2932 15.7575 15.1914 15.6748L14.4385 15.0635C14.3159 14.9639 14.2538 14.9144 14.2314 14.8545C14.2119 14.8019 14.2119 14.7431 14.2314 14.6904C14.2538 14.6305 14.3159 14.581 14.4385 14.4814L15.1914 13.8701C15.2932 13.7874 15.3442 13.7454 15.3809 13.6943C15.4132 13.6491 15.4375 13.5985 15.4521 13.5449C15.4687 13.4843 15.4688 13.4183 15.4688 13.2871V6.7666C15.4688 6.2418 15.4682 5.97885 15.3662 5.77832C15.2763 5.60188 15.1325 5.45807 14.9561 5.36816C14.7555 5.26606 14.4928 5.26562 13.9678 5.26562H12.0322Z"/>
    <path d="M36.4358 20.7765C36.5646 20.7765 36.669 20.6721 36.669 20.5433V5.27276C36.669 5.14396 36.5646 5.03955 36.4358 5.03955H34.1854C34.102 5.03955 34.0257 5.08468 33.9799 5.15435C33.4639 5.93895 32.5044 6.33414 31.1895 6.37528C31.0608 6.37931 30.9561 6.48328 30.9561 6.61208V8.89605C30.9561 9.02485 31.0605 9.12926 31.1893 9.12926H33.008C33.1368 9.12926 33.2412 9.23367 33.2412 9.36246V20.5433C33.2412 20.6721 33.3457 20.7765 33.4745 20.7765H36.4358Z"/>
    <path d="M45.4202 8.19652C46.6342 8.19652 47.6102 8.84226 47.6102 10.4686C47.6102 12.0471 46.6342 12.7406 45.4202 12.7406H42.7779V8.19652H45.4202ZM45.4202 15.6824C48.9908 15.6824 51.0617 13.506 51.0617 10.3729C51.0617 7.40728 48.9908 5.23088 45.4202 5.23088H39.6072C39.4784 5.23088 39.374 5.33529 39.374 5.46409V20.5433C39.374 20.6721 39.4784 20.7765 39.6072 20.7765H42.5447C42.6735 20.7765 42.7779 20.6721 42.7779 20.5433V15.9156C42.7779 15.7868 42.8823 15.6824 43.0111 15.6824H45.4202Z"/>
    <path d="M56.3414 18.5762C55.3416 18.5762 54.7227 18.1218 54.7227 17.3087C54.7227 16.5912 55.1512 16.1128 56.1748 16.1128H58.9599V16.352C58.9599 17.7392 57.7697 18.5762 56.3414 18.5762ZM59.2217 20.5433C59.2217 20.6721 59.3261 20.7765 59.4549 20.7765H62.0116C62.1404 20.7765 62.2448 20.6721 62.2448 20.5433V13.793C62.2448 10.5403 60.4119 8.65093 57.1031 8.65093C54.6465 8.65093 52.7656 9.96362 51.9944 12.074C51.9481 12.2007 52.025 12.3374 52.1561 12.3695L54.732 13.0013C54.8484 13.0298 54.9667 12.9652 55.012 12.8543C55.4032 11.8969 56.0545 11.3296 57.1031 11.3296C58.1981 11.3296 58.9599 12.0471 58.9599 13.3385V13.506C58.9599 13.8647 58.8408 14.0082 58.4124 14.0082H55.4369C52.9612 14.0082 51.4616 15.3236 51.4616 17.4043C51.4616 19.6286 53.1755 21.0635 55.5559 21.0635C56.7536 21.0635 57.9044 20.6697 58.7154 19.7926C58.8748 19.6202 59.2217 19.7253 59.2217 19.9601V20.5433Z"/>
    <path d="M68.5782 18.6719C67.4214 18.6719 66.5765 18.1915 66.16 17.3088C66.1094 17.2016 65.992 17.1393 65.8772 17.1684L63.4695 17.7782C63.3457 17.8096 63.2695 17.9352 63.3063 18.0574C63.9158 20.083 65.9546 21.0635 68.4592 21.0635C71.6727 21.0635 73.5056 19.4133 73.5056 17.1652C73.5056 12.8124 66.6263 14.2952 66.6263 12.1427C66.6263 11.4252 67.2214 10.9708 68.2925 10.9708C69.3586 10.9708 70.0724 11.5538 70.4146 12.4478C70.457 12.5587 70.5707 12.6283 70.6874 12.6062L73.1448 12.1407C73.2762 12.1158 73.3602 11.9854 73.3223 11.8571C72.7587 9.95281 71.1744 8.65093 68.3163 8.65093C65.1742 8.65093 63.5079 10.3251 63.5079 12.4297C63.5079 16.926 70.4111 15.5867 70.4111 17.4522C70.4111 18.1936 69.7922 18.6719 68.5782 18.6719Z"/>
    <path d="M79.2724 18.6719C78.1156 18.6719 77.2707 18.1915 76.8541 17.3088C76.8036 17.2016 76.6862 17.1393 76.5713 17.1684L74.1636 17.7782C74.0398 17.8096 73.9636 17.9352 74.0004 18.0574C74.61 20.083 76.6488 21.0635 79.1533 21.0635C82.3669 21.0635 84.1998 19.4133 84.1998 17.1652C84.1998 12.8124 77.3204 14.2952 77.3204 12.1427C77.3204 11.4252 77.9155 10.9708 78.9867 10.9708C80.0528 10.9708 80.7666 11.5538 81.1088 12.4478C81.1512 12.5587 81.2649 12.6283 81.3816 12.6062L83.8389 12.1407C83.9703 12.1158 84.0544 11.9854 84.0164 11.8571C83.4528 9.95281 81.8686 8.65093 79.0105 8.65093C75.8684 8.65093 74.2021 10.3251 74.2021 12.4297C74.2021 16.926 81.1053 15.5867 81.1053 17.4522C81.1053 18.1936 80.4864 18.6719 79.2724 18.6719Z"/>
    <path d="M87.209 20.5985C87.2344 20.703 87.328 20.7765 87.4356 20.7765H91.138C91.2463 20.7765 91.3403 20.7021 91.3651 20.5967L93.2509 12.5732L95.1368 20.5967C95.1615 20.7021 95.2556 20.7765 95.3638 20.7765H99.1856C99.293 20.7765 99.3866 20.7032 99.4121 20.5989L102.202 9.22669C102.238 9.07976 102.127 8.93793 101.975 8.93793H99.3442C99.2336 8.93793 99.1383 9.0156 99.1159 9.1239L97.25 18.1457L94.9383 9.11331C94.9119 9.01011 94.8189 8.93793 94.7124 8.93793H91.7689C91.6609 8.93793 91.567 9.01209 91.542 9.11717L89.3947 18.1457L87.5522 9.12447C87.5301 9.0159 87.4346 8.93793 87.3237 8.93793H84.6687C84.5176 8.93793 84.4064 9.07944 84.4421 9.22626L87.209 20.5985Z"/>
    <path d="M108.491 21.0635C112.062 21.0635 114.513 18.2892 114.513 14.8692C114.513 11.4252 112.062 8.65093 108.491 8.65093C104.944 8.65093 102.468 11.4252 102.468 14.8692C102.468 18.2892 104.944 21.0635 108.491 21.0635ZM108.491 18.2175C107.015 18.2175 105.872 16.9738 105.872 14.8692C105.872 12.7646 107.015 11.497 108.491 11.497C109.967 11.497 111.133 12.7646 111.133 14.8692C111.133 16.9738 109.967 18.2175 108.491 18.2175Z"/>
    <path d="M119.208 14.5104C119.208 12.4776 120.232 11.9992 121.803 11.9992C122.104 11.9992 122.435 12.0291 122.749 12.089C122.882 12.1143 123.013 12.0294 123.037 11.8962L123.535 9.07969C123.553 8.98077 123.506 8.88046 123.413 8.84108C123.127 8.71911 122.773 8.65093 122.351 8.65093C120.756 8.65093 119.518 9.58367 118.923 11.4731V9.17113C118.923 9.04234 118.818 8.93793 118.69 8.93793H116.109C115.98 8.93793 115.876 9.04234 115.876 9.17113V20.5433C115.876 20.6721 115.98 20.7765 116.109 20.7765H118.975C119.104 20.7765 119.208 20.6721 119.208 20.5433V14.5104Z"/>
    <path d="M129.694 18.2892C127.98 18.2892 127.076 16.8782 127.076 14.8692C127.076 12.8602 127.98 11.4252 129.694 11.4252C131.408 11.4252 132.313 12.8602 132.313 14.8692C132.313 16.8782 131.408 18.2892 129.694 18.2892ZM132.503 20.5433C132.503 20.6721 132.608 20.7765 132.736 20.7765H135.412C135.541 20.7765 135.645 20.6721 135.645 20.5433V5.49887C135.645 5.37007 135.541 5.26566 135.412 5.26566H132.641C132.512 5.26566 132.408 5.37007 132.408 5.49887V10.5882C131.67 9.20101 130.432 8.65093 128.861 8.65093C125.791 8.65093 123.696 11.3296 123.696 14.8692C123.696 18.4088 125.791 21.0635 128.861 21.0635C130.528 21.0635 131.813 20.3939 132.503 18.6719V20.5433Z"/>
  </g>
</svg>
