<svg width="400" height="100" xmlns="http://www.w3.org/2000/svg">
  <path fill="#ffffff" d="M86.3 74.2h28.6v18.7H52.2l32.4-49.4H57.6V24.8h60.8L86.3 74.2z"/>
  <path fill="#ffffff" d="M203.6 92.8V55c0-8.5-2.2-12.9-9.4-12.9s-9.9 4.2-9.9 12.9v37.8h-20.8V55c0-8.5-2.4-12.9-9.8-12.9s-9.5 4.2-9.5 12.9v37.8h-20.8V55c0-22.1 9.5-31.7 29.2-31.7 11.2 0 20.8 7.7 21.3 10.3.6-2.7 7.9-10.3 21.7-10.3 20.8 0 28.8 11.4 28.8 31.7v37.8h-20.8z"/>
  <path fill="#ffffff" d="M258.7 92.8c-14.1 0-22.8-6.3-22.8-22.8v-68h20.8v22.8h13.5v18.7h-13.5v23c0 5.7 2.7 7.7 7.6 7.7h5.8v18.7h-11.4z"/>
  <path fill="#ffffff" d="M311.1 94.4c-21.2 0-34-12.8-34-35.5s14.1-35.5 34-35.5 33.5 13.1 33.5 35.5-13.6 35.5-33.5 35.5zm-.1-52.3c-8 0-13.2 5.1-13.2 16.8s5.5 16.8 13.2 16.8 13.1-5.3 13.1-16.8-4.3-16.8-13.1-16.8z"/>
</svg>
