<svg xmlns="http://www.w3.org/2000/svg" width="320" height="64" viewBox="0 0 320 64" fill="none">
  <!-- 云标志，左侧64x64像素 -->
  <g>
    <path d="M20.0483 17.1416C19.6945 17.4914 18.987 18.0161 17.7488 18.0161C17.2182 18.0161 16.5991 18.0161 16.3338 18.0161C15.98 18.0161 13.3268 18.0161 10.143 18.0161C12.4424 15.8298 14.3881 13.9932 14.565 13.8183C14.7419 13.6434 15.1841 13.2061 15.6263 12.8563C16.5107 12.0692 17.2182 11.9817 17.8373 11.9817C18.7217 11.9817 19.4292 12.3316 20.0483 12.8563C21.2864 13.9932 21.2864 16.0047 20.0483 17.1416ZM21.5518 11.457C20.6674 10.495 19.3408 9.88281 17.9257 9.88281C16.6875 9.88281 15.6263 10.3201 14.6534 11.0197C14.2997 11.3695 13.769 11.7194 13.3268 12.2441C12.9731 12.5939 5.36719 19.9401 5.36719 19.9401C5.80939 20.0276 6.34003 20.0276 6.78223 20.0276C7.22443 20.0276 16.0685 20.0276 16.4222 20.0276C17.1298 20.0276 17.6604 20.0276 18.191 19.9401C19.3408 19.8527 20.4905 19.4154 21.4633 18.5409C23.4975 16.6168 23.4975 13.381 21.5518 11.457Z" fill="#00A3FF"/>
    <path d="M9.1701 10.9323C8.19726 10.2326 7.22442 9.88281 6.07469 9.88281C4.65965 9.88281 3.33304 10.495 2.44864 11.457C0.502952 13.4685 0.502952 16.6168 2.53708 18.6283C3.42148 19.4154 4.30589 19.8527 5.36717 19.9401L7.4013 18.0161C7.04754 18.0161 6.60533 18.0161 6.25157 18.0161C5.10185 17.9287 4.39433 17.5789 3.95212 17.1416C2.71396 15.9172 2.71396 13.9932 3.86368 12.7688C4.48277 12.1566 5.19029 11.8943 6.07469 11.8943C6.60533 11.8943 7.4013 11.9817 8.19726 12.7688C8.55102 13.1186 9.52386 13.8183 9.87763 14.1681H9.96607L11.2927 12.8563V12.7688C10.6736 12.1566 9.70075 11.3695 9.1701 10.9323Z" fill="#00C8DC"/>
    <path d="M18.4564 8.74536C17.4836 6.12171 14.9188 4.28516 12.0003 4.28516C8.5511 4.28516 5.80945 6.82135 5.27881 9.96973C5.54413 9.96973 5.80945 9.88228 6.16321 9.88228C6.51697 9.88228 6.95917 9.96973 7.31294 9.96973C7.75514 7.78336 9.70082 6.20917 12.0003 6.20917C13.946 6.20917 15.6263 7.34608 16.4223 9.00773C16.4223 9.00773 16.5107 9.09518 16.5107 9.00773C17.1298 8.92027 17.8373 8.74536 18.4564 8.74536C18.4564 8.83282 18.4564 8.83282 18.4564 8.74536Z" fill="#006EFF"/>
  </g>
  <!-- “腾讯云”白色文字，右侧对齐，大小与云标志协调 -->
  <g transform="translate(76,8)">
    <path fill="#fff" fill-rule="evenodd" d="M29.2209 2.75544V4.39062H32.6553V10.4282H28.5849V12.0634H32.6553V22.0002H34.5633V12.0634H38.8881V21.6229H42.3225V19.9877H40.7961V2.75544H29.2209ZM34.4361 10.1766V4.39062H38.8881V10.4282H34.5633V10.1766H34.4361Z"></path>
    <path fill="#fff" fill-rule="evenodd" d="M8.99607 17.3455H18.0273V18.9807H8.99607V17.3455Z"></path>
    <path fill="#fff" fill-rule="evenodd" d="M2.7632 14.3275C2.7632 17.2205 2.636 19.6104 2 21.4971C2 21.6229 2 21.6229 2.1272 21.6229C2.1272 21.6229 3.5264 21.6229 3.7808 21.6229C4.4168 18.8557 4.4168 16.5916 4.4168 14.9564H6.70641V19.9877H5.18C5.0528 19.9877 5.0528 19.9877 5.0528 20.1135L5.56161 21.6229H8.48721V2.75544H2.8904L2.7632 14.3275ZM4.544 9.79929H6.83361V13.8243H4.544V9.79929ZM6.83361 4.39062V8.28989H4.544V4.39062H6.83361Z"></path>
    <path fill="#fff" fill-rule="evenodd" d="M18.6633 9.4212H20.8257V7.9118H14.3385C14.4657 7.40867 14.5929 6.77976 14.9745 6.40241H20.5713V4.89301H19.0449C19.1721 4.01253 19.6809 2.88048 19.6809 2.88048C19.6809 2.7547 19.6809 2.7547 19.5537 2.7547H18.1545L17.5185 4.89301H15.4833C15.6105 4.01253 15.7377 3.00626 15.9921 2.12578C15.9921 2 15.9921 2 15.8649 2C15.7377 2 14.7201 2 14.3385 2C14.2113 3.13205 14.0841 4.13831 13.7025 5.01879H12.5577L11.9217 2.88048H10.5225C10.3953 2.88048 10.3953 2.88048 10.3953 3.00626C10.3953 3.13205 10.6497 4.13831 11.0313 5.01879H9.50487V6.52819H13.0665C12.9393 7.03132 12.8121 7.66024 12.4305 8.03759H8.99607V9.54698H11.6673C10.5225 11.0564 9.50487 11.6853 8.99607 12.0626C8.99607 12.1884 8.99607 13.6978 8.99607 13.6978C8.99607 13.8236 9.12327 13.8236 9.25047 13.6978C9.75927 13.572 10.3953 13.0689 10.7769 12.5658H17.0097V14.8299H12.1761L12.3033 13.4463C12.3033 13.3205 12.3033 13.3205 12.1761 13.3205C12.0489 13.3205 10.6497 13.3205 10.6497 13.3205L10.5225 16.0877C10.5225 16.2135 10.5225 16.2135 10.6497 16.2135C10.7769 16.2135 19.0449 16.2135 19.0449 16.2135V20.2385H15.3561C15.2289 20.2385 15.2289 20.2385 15.2289 20.3643L15.7377 21.8737H21.0801V14.8299H19.0449V11.8111C19.8081 12.44 20.5713 13.0689 21.3345 13.3205C21.4617 13.4463 21.5889 13.4463 21.5889 13.3205C21.5889 13.3205 21.5889 11.8111 21.5889 11.6853C20.8257 11.4337 19.6809 10.8048 18.6633 9.4212ZM16.6281 9.4212C16.8825 10.0501 17.3913 10.679 17.9001 11.0564H12.4305C12.9393 10.5532 13.1937 9.92433 13.7025 9.4212H16.6281Z"></path>
    <path fill="#fff" fill-rule="evenodd" d="M30.2386 16.2143C30.2386 16.2143 28.7122 17.3464 27.1858 18.4784V7.91266H23.1153V9.79941H25.4049V19.9878C24.7689 20.491 24.2601 20.6168 24.2601 20.6168L25.4049 22.0004L30.3658 18.3527L30.2386 16.2143C30.6202 16.2143 30.493 16.0886 30.2386 16.2143Z"></path>
    <path fill="#fff" fill-rule="evenodd" d="M25.6593 6.27748H27.4402C27.6946 6.27748 27.6946 6.1517 27.6946 6.1517L25.1505 2.25243H23.2425L23.1153 2.37821C23.2425 2.50399 25.6593 6.27748 25.6593 6.27748Z"></path>
    <path fill="#fff" fill-rule="evenodd" d="M60.2579 3.13223H46.0115V5.01898H60.2579V3.13223Z"></path>
    <path fill="#fff" fill-rule="evenodd" d="M51.2266 11.8114H62.4202V9.9247H43.9762V11.8114H49.0642C47.9194 14.5787 45.5026 21.371 45.3754 21.4967C45.3754 21.6225 45.3754 21.6225 45.5026 21.6225H61.4026C61.5298 21.6225 61.5298 21.4967 61.5298 21.4967L59.2402 15.3334H57.3322C57.205 15.3334 57.205 15.4592 57.205 15.4592C57.205 15.5849 58.8586 19.8616 58.8586 19.8616H48.4282L51.2266 11.8114Z"></path>
  </g>
</svg>
