<svg width="380" height="600" xmlns="http://www.w3.org/2000/svg">

 <g>
  <title>Layer 1</title>
  <g stroke="null" fill="white">
   <title stroke="null">TencentCloud</title>
   <path stroke="null" d="m149.59185,22.54864l0,3.35208l6.78807,0l0,12.37691l-8.04512,0l0,3.35213l8.04512,0l0,20.37023l3.77115,0l0,-20.37023l8.54794,0l0,19.59678l6.78807,0l0,-3.35213l-3.01692,0l0,-35.32577l-22.87832,0zm10.30782,15.21322l0,-11.86114l8.79935,0l0,12.37691l-8.54794,0l0,-0.51577l-0.25141,0z"/>
   <path stroke="null" d="m109.61758,52.45796l17.85018,0l0,3.35213l-17.85018,0l0,-3.35213z"/>
   <path stroke="null" d="m97.29835,46.27112c0,5.93059 -0.25141,10.82983 -1.50846,14.69753c0,0.25789 0,0.25789 0.25141,0.25789c0,0 2.76551,0 3.26833,0c1.25705,-5.6727 1.25705,-10.31406 1.25705,-13.66619l4.5254,0l0,10.31406l-3.01694,0c-0.25141,0 -0.25141,0 -0.25141,0.25789l1.00566,3.09424l5.78243,0l0,-38.6779l-11.06207,0l-0.25141,23.72248zm3.51974,-9.28274l4.5254,0l0,8.25119l-4.5254,0l0,-8.25119zm4.5254,-11.08766l0,7.99342l-4.5254,0l0,-7.99342l4.5254,0z"/>
   <path stroke="null" d="m128.72481,36.21331l4.27397,0l0,-3.09424l-12.82192,0c0.25141,-1.03141 0.50282,-2.32066 1.25705,-3.09422l11.06205,0l0,-3.09424l-3.01692,0c0.25141,-1.80497 1.25705,-4.12564 1.25705,-4.12564c0,-0.25785 0,-0.25785 -0.25141,-0.25785l-2.76551,0l-1.25705,4.38349l-4.02256,0c0.25141,-1.80497 0.50282,-3.8678 1.00564,-5.67276c0,-0.25785 0,-0.25785 -0.25141,-0.25785c-0.25141,0 -2.26269,0 -3.01692,0c-0.25141,2.32068 -0.50282,4.38349 -1.25705,6.18846l-2.26269,0l-1.25705,-4.38349l-2.76551,0c-0.25141,0 -0.25141,0 -0.25141,0.25785c0,0.25787 0.50282,2.32068 1.25705,4.12564l-3.01698,0l0,3.09424l7.03954,0c-0.25141,1.03141 -0.50282,2.32068 -1.25705,3.09424l-6.78813,0l0,3.09422l5.27967,0c-2.26269,3.09428 -4.27403,4.38351 -5.27967,5.15697c0,0.25789 0,3.35213 0,3.35213c0,0.25789 0.25141,0.25789 0.50282,0c1.00564,-0.25789 2.26275,-1.28923 3.01698,-2.32058l12.3191,0l0,4.64136l-9.55358,0l0.25141,-2.83635c0,-0.25789 0,-0.25789 -0.25141,-0.25789c-0.25141,0 -3.01692,0 -3.01692,0l-0.25141,5.6727c0,0.25789 0,0.25789 0.25141,0.25789c0.25141,0 16.59307,0 16.59307,0l0,8.25117l-7.29089,0c-0.25141,0 -0.25141,0 -0.25141,0.25789l1.00564,3.09424l10.55923,0l0,-14.43964l-4.02256,0l0,-6.18848c1.50846,1.28923 3.01692,2.57846 4.52538,3.09424c0.25141,0.25789 0.50282,0.25789 0.50282,0c0,0 0,-3.09424 0,-3.35213c-1.50846,-0.51577 -3.77115,-1.80501 -5.78243,-4.64136zm-4.02256,0c0.50282,1.28923 1.50846,2.57846 2.5141,3.35213l-10.81064,0c1.00564,-1.03155 1.50846,-2.32072 2.5141,-3.35213l5.78243,0z"/>
   <path stroke="null" d="m151.60333,50.13902c0,0 -3.01692,2.32078 -6.03384,4.64136l0,-21.65955l-8.04532,0l0,3.8678l4.52538,0l0,20.88599c-1.25705,1.03155 -2.26269,1.28944 -2.26269,1.28944l2.26269,2.83635l9.80519,-7.47771l-0.25141,-4.38368c0.75423,0 0.50282,-0.25768 0,0z"/>
   <path stroke="null" d="m142.55237,29.76875l3.51994,0c0.50282,0 0.50282,-0.25785 0.50282,-0.25785l-5.0284,-7.99342l-3.77115,0l-0.25141,0.25785c0.25141,0.25785 5.0282,7.99342 5.0282,7.99342z"/>
   <path stroke="null" d="m210.93632,23.32105l-28.15793,0l0,3.8678l28.15793,0l0,-3.8678z"/>
   <path stroke="null" d="m193.086,41.11317l22.12409,0l0,-3.8677l-36.45447,0l0,3.8677l10.0564,0c-2.26269,5.67291 -7.03948,19.59698 -7.29089,19.85466c0,0.25789 0,0.25789 0.25141,0.25789l31.42627,0c0.25141,0 0.25141,-0.25789 0.25141,-0.25789l-4.52538,-12.63464l-3.77115,0c-0.25141,0 -0.25141,0.25789 -0.25141,0.25789c0,0.25768 3.26833,9.02483 3.26833,9.02483l-20.61563,0l5.53102,-16.50274z"/>
  </g>
  <g stroke="null">
   <title stroke="null">TencentCloud</title>
   <path stroke="null" fill="#00A3FF" d="m76.07086,60.28552c-1.19006,1.28305 -3.56983,3.20762 -7.73469,3.20762c-1.78475,0 -3.86718,0 -4.75955,0c-1.19006,0 -10.11447,0 -20.82363,0c7.73436,-8.01923 14.27899,-14.75578 14.87402,-15.3973c0.59503,-0.64152 2.08243,-2.24552 3.56983,-3.52856c2.9748,-2.88704 5.35458,-3.20799 7.43701,-3.20799c2.9748,0 5.35458,1.28341 7.43701,3.20799c4.16452,4.17009 4.16452,11.54816 0,15.71825zm5.05723,-20.8508c-2.9748,-3.52856 -7.43701,-5.77404 -12.1969,-5.77404c-4.16486,0 -7.73436,1.60396 -11.00684,4.17005c-1.18972,1.28305 -2.9748,2.56646 -4.46221,4.49103c-1.18972,1.28305 -26.77327,28.22851 -26.77327,28.22851c1.4874,0.32095 3.27228,0.32095 4.75969,0.32095c1.4874,0 31.23568,0 32.4254,0c2.38011,0 4.16486,0 5.94961,-0.32095c3.86751,-0.32058 7.73469,-1.92457 11.00684,-5.13219c6.84232,-7.05749 6.84232,-18.92623 0.29768,-25.98336z"/>
   <path stroke="null" fill="#00C8DC" d="m39.4805,37.51015c-3.27228,-2.56646 -6.54457,-3.84947 -10.41185,-3.84947c-4.75969,0 -9.22193,2.24548 -12.19673,5.77404c-6.5446,7.37807 -6.5446,18.92587 0.29748,26.30394c2.9748,2.88704 5.94964,4.49103 9.51941,4.81161l6.84208,-7.05713c-1.18992,0 -2.67736,0 -3.86728,0c-3.86725,-0.32058 -6.24709,-1.60363 -7.73452,-3.20762c-4.16473,-4.49103 -4.16473,-11.54816 -0.29748,-16.03919c2.0824,-2.24552 4.46224,-3.20762 7.43704,-3.20762c1.78488,0 4.46224,0.32058 7.13956,3.20762c1.18992,1.28305 4.46221,3.84951 5.65216,5.13256l0.29748,0l4.46231,-4.81161l0,-0.32095c-2.08243,-2.24552 -5.35475,-5.13256 -7.13966,-6.73618z"/>
   <path stroke="null" fill="#006EFF" d="m70.71628,29.48857c-3.27215,-9.62341 -11.89922,-16.35977 -21.716,-16.35977c-11.60187,0 -20.8238,9.30261 -22.60868,20.85069c0.89244,0 1.78488,-0.32076 2.9748,-0.32076c1.18992,0 2.67732,0.32076 3.86728,0.32076c1.4874,-8.01949 8.03197,-13.79353 15.7666,-13.79353c6.54464,0 12.19656,4.17012 14.87402,10.26497c0,0 0.29735,0.32076 0.29735,0c2.08243,-0.3208 4.46221,-0.96236 6.54464,-0.96236c0,0.3208 0,0.3208 0,0z"/>
  </g>
 </g>
</svg>
