<svg width="250" height="85" xmlns="http://www.w3.org/2000/svg">
 <g>
  <title>Layer 1</title>
  <g stroke="null" id="svg_1" fill="white">
   <title stroke="null">TencentCloud</title>
   <path stroke="null" id="svg_2" d="m156.55986,22.66195l0,3.59735l7.6407,0l0,13.28253l-9.05564,0l0,3.59741l9.05564,0l0,21.86072l4.24483,0l0,-21.86072l9.62162,0l0,21.03068l7.6407,0l0,-3.59741l-3.39587,0l0,-37.91055l-25.75199,0l0.00001,0zm11.60255,16.32637l0,-12.72902l9.90461,0l0,13.28253l-9.62162,0l0,-0.55351l-0.28299,0z"/>
   <path stroke="null" id="svg_3" d="m111.56455,54.75974l20.09228,0l0,3.59741l-20.09228,0l0,-3.59741z"/>
   <path stroke="null" id="svg_4" d="m97.69794,48.12021c0,6.36453 -0.28299,11.62225 -1.69793,15.77295c0,0.27676 0,0.27676 0.28299,0.27676c0,0 3.11288,0 3.67885,0c1.41494,-6.08777 1.41494,-11.06874 1.41494,-14.66614l5.09382,0l0,11.06874l-3.39589,0c-0.28299,0 -0.28299,0 -0.28299,0.27676l1.13198,3.32065l6.50874,0l0,-41.50796l-12.45154,0l-0.28299,25.45825l0.00001,0zm3.96184,-9.96196l5.09382,0l0,8.85493l-5.09382,0l0,-8.85493zm5.09382,-11.89894l0,8.5783l-5.09382,0l0,-8.5783l5.09382,0z"/>
   <path stroke="null" id="svg_5" d="m133.07178,37.32647l4.81081,0l0,-3.32065l-14.43244,0c0.28299,-1.10688 0.56598,-2.49046 1.41494,-3.32062l12.45152,0l0,-3.32065l-3.39587,0c0.28299,-1.93704 1.41494,-4.42751 1.41494,-4.42751c0,-0.27672 0,-0.27672 -0.28299,-0.27672l-3.11288,0l-1.41494,4.70423l-4.52782,0c0.28299,-1.93704 0.56598,-4.15081 1.13196,-6.08784c0,-0.27672 0,-0.27672 -0.28299,-0.27672c-0.28299,0 -2.5469,0 -3.39587,0c-0.28299,2.49048 -0.56598,4.70423 -1.41494,6.64127l-2.5469,0l-1.41494,-4.70423l-3.11288,0c-0.28299,0 -0.28299,0 -0.28299,0.27672c0,0.27674 0.56598,2.49048 1.41494,4.42751l-3.39593,0l0,3.32065l7.92375,0c-0.28299,1.10688 -0.56598,2.49048 -1.41494,3.32065l-7.64077,0l0,3.32062l5.94283,0c-2.5469,3.32069 -4.81088,4.70425 -5.94283,5.53431c0,0.27676 0,3.59741 0,3.59741c0,0.27676 0.28299,0.27676 0.56598,0c1.13196,-0.27676 2.54697,-1.38356 3.39593,-2.49038l13.86646,0l0,4.98097l-10.75358,0l0.28299,-3.04389c0,-0.27676 0,-0.27676 -0.28299,-0.27676c-0.28299,0 -3.39587,0 -3.39587,0l-0.28299,6.08777c0,0.27676 0,0.27676 0.28299,0.27676c0.28299,0 18.67727,0 18.67727,0l0,8.85491l-8.20668,0c-0.28299,0 -0.28299,0 -0.28299,0.27676l1.13196,3.32065l11.88554,0l0,-15.49619l-4.52782,0l0,-6.64129c1.69793,1.38356 3.39587,2.76713 5.0938,3.32065c0.28299,0.27676 0.56598,0.27676 0.56598,0c0,0 0,-3.32065 0,-3.59741c-1.69793,-0.55351 -4.24483,-1.93708 -6.50874,-4.98097l-0.00003,-0.00001zm-4.52782,0c0.56598,1.38356 1.69793,2.76713 2.82989,3.59741l-12.16853,0c1.13196,-1.10703 1.69793,-2.49053 2.82989,-3.59741l6.50874,0l0.00001,0z"/>
   <path stroke="null" id="svg_6" d="m158.82399,52.27112c0,0 -3.39587,2.49059 -6.79173,4.98097l0,-23.24438l-9.05587,0l0,4.15081l5.0938,0l0,22.41422c-1.41494,1.10703 -2.5469,1.38379 -2.5469,1.38379l2.5469,3.04389l11.03679,-8.02485l-0.28299,-4.70443c0.84897,0 0.56598,-0.27653 0,0z"/>
   <path stroke="null" id="svg_7" d="m148.63617,30.41036l3.96207,0c0.56598,0 0.56598,-0.27672 0.56598,-0.27672l-5.66,-8.5783l-4.24483,0l-0.28299,0.27672c0.28299,0.27672 5.65978,8.5783 5.65978,8.5783z"/>
   <path stroke="null" id="svg_8" d="m225.60961,23.49088l-31.69476,0l0,4.15081l31.69476,0l0,-4.15081z"/>
   <path stroke="null" id="svg_9" d="m205.51717,42.58485l24.90303,0l0,-4.1507l-41.0334,0l0,4.1507l11.31955,0c-2.5469,6.088 -7.92369,21.03089 -8.20668,21.30742c0,0.27676 0,0.27676 0.28299,0.27676l35.37362,0c0.28299,0 0.28299,-0.27676 0.28299,-0.27676l-5.0938,-13.55912l-4.24483,0c-0.28299,0 -0.28299,0.27676 -0.28299,0.27676c0,0.27653 3.67885,9.68518 3.67885,9.68518l-23.20509,0l6.22575,-17.71024z"/>
  </g>
  <g id="svg_10" stroke="null">
   <title stroke="null">TencentCloud</title>
   <path id="svg_11" d="m76.07086,60.28552c-1.19006,1.28305 -3.56983,3.20762 -7.73469,3.20762c-1.78475,0 -3.86718,0 -4.75955,0c-1.19006,0 -10.11447,0 -20.82363,0c7.73436,-8.01923 14.27899,-14.75578 14.87402,-15.3973c0.59503,-0.64152 2.08243,-2.24552 3.56983,-3.52856c2.9748,-2.88704 5.35458,-3.20799 7.43701,-3.20799c2.9748,0 5.35458,1.28341 7.43701,3.20799c4.16452,4.17009 4.16452,11.54816 0,15.71825l0,-0.00001zm5.05723,-20.8508c-2.9748,-3.52856 -7.43701,-5.77404 -12.1969,-5.77404c-4.16486,0 -7.73436,1.60396 -11.00684,4.17005c-1.18972,1.28305 -2.9748,2.56646 -4.46221,4.49103c-1.18972,1.28305 -26.77327,28.22851 -26.77327,28.22851c1.4874,0.32095 3.27228,0.32095 4.75969,0.32095c1.4874,0 31.23568,0 32.4254,0c2.38011,0 4.16486,0 5.94961,-0.32095c3.86751,-0.32058 7.73469,-1.92457 11.00684,-5.13219c6.84232,-7.05749 6.84232,-18.92623 0.29768,-25.98336z" fill="#00A3FF" stroke="null"/>
   <path id="svg_12" d="m39.4805,37.51015c-3.27228,-2.56646 -6.54457,-3.84947 -10.41185,-3.84947c-4.75969,0 -9.22193,2.24548 -12.19673,5.77404c-6.5446,7.37807 -6.5446,18.92587 0.29748,26.30394c2.9748,2.88704 5.94964,4.49103 9.51941,4.81161l6.84208,-7.05713c-1.18992,0 -2.67736,0 -3.86728,0c-3.86725,-0.32058 -6.24709,-1.60363 -7.73452,-3.20762c-4.16473,-4.49103 -4.16473,-11.54816 -0.29748,-16.03919c2.0824,-2.24552 4.46224,-3.20762 7.43704,-3.20762c1.78488,0 4.46224,0.32058 7.13956,3.20762c1.18992,1.28305 4.46221,3.84951 5.65216,5.13256l0.29748,0l4.46231,-4.81161l0,-0.32095c-2.08243,-2.24552 -5.35475,-5.13256 -7.13966,-6.73618z" fill="#00C8DC" stroke="null"/>
   <path id="svg_13" d="m70.71628,29.48857c-3.27215,-9.62341 -11.89922,-16.35977 -21.716,-16.35977c-11.60187,0 -20.8238,9.30261 -22.60868,20.85069c0.89244,0 1.78488,-0.32076 2.9748,-0.32076c1.18992,0 2.67732,0.32076 3.86728,0.32076c1.4874,-8.01949 8.03197,-13.79353 15.7666,-13.79353c6.54464,0 12.19656,4.17012 14.87402,10.26497c0,0 0.29735,0.32076 0.29735,0c2.08243,-0.3208 4.46221,-0.96236 6.54464,-0.96236c0,0.3208 0,0.3208 0,0l-0.00001,0z" fill="#006EFF" stroke="null"/>
  </g>
 </g>

</svg>
