<svg width="100" height="20" viewBox="0 0 94 17" fill="none" xmlns="http://www.w3.org/2000/svg"><path fill-rule="evenodd" clip-rule="evenodd" d="M49.9978 4C47.6838 4 45.5797 4.63183 43.6846 5.89442C41.7875 7.15914 40.6171 8.70912 40.1734 10.5433C39.7277 12.3807 40.1415 13.9169 41.4117 15.1563C42.6841 16.3861 44.4865 17 46.8211 17C48.2345 17 49.7219 16.701 51.2814 16.103L52.1904 12.3511C51.1538 13.1773 50.2912 13.732 49.6015 14.0184C48.8902 14.3132 48.1171 14.46 47.2802 14.46C45.9678 14.46 44.9796 14.0902 44.3115 13.3485C43.6548 12.6068 43.4654 11.6612 43.7454 10.5053C44.0181 9.37793 44.68 8.43969 45.7279 7.68953C46.7769 6.94043 47.9576 6.56429 49.268 6.56429C50.1049 6.56429 50.7956 6.71538 51.3432 7.01861C51.9022 7.31445 52.4817 7.85753 53.0859 8.64889L54 4.87061C52.8183 4.29056 51.4842 4 49.9978 4Z" fill="#6A7384"></path><path fill-rule="evenodd" clip-rule="evenodd" d="M15 0H0.573987L0 2.41081H5.4366L1.96519 17H5.53328L9.00468 2.41081H14.426L15 0Z" fill="#6A7384"></path><path fill-rule="evenodd" clip-rule="evenodd" d="M15 9C15.1996 8.68866 15.4415 8.41171 15.7265 8.16636C16.0105 7.92286 16.3243 7.71468 16.6721 7.54554C17.0302 7.36617 17.4068 7.23327 17.8029 7.14405C18.2011 7.04833 18.6117 7 19.0346 7C20.8939 7 21.8817 7.66636 22 9H15ZM19.1148 4C16.9047 4 14.9873 4.59379 13.3595 5.78137C11.7378 6.98586 10.6923 8.56014 10.2196 10.5053C9.74183 12.4694 10.0438 14.0437 11.1235 15.2303C12.2074 16.4104 13.8797 17 16.1404 17C19.9918 17 22.9289 14.5889 23.2289 14.3237L21.5679 13.9243C21.1739 14.0163 19.0259 14.6586 16.883 14.46C14.1806 14.2096 13.5642 12.1736 13.7173 11.1625H24.5785L24.7564 10.4926C25.2497 8.46294 24.9943 6.87598 23.9859 5.73066C22.9693 4.57689 21.3456 4 19.1148 4Z" fill="#6A7384"></path><path fill-rule="evenodd" clip-rule="evenodd" d="M35.6355 4C34.1135 4 32.6274 4.50614 31.1772 5.51842L27.9651 4.35082L25 17H28.4847L29.9175 10.8959C30.2865 9.31882 30.7805 8.21531 31.4016 7.58317C32.035 6.94344 32.9277 6.62303 34.0797 6.62303C35.1385 6.62303 35.8118 6.86524 36.0988 7.35074C36.3981 7.82647 36.4022 8.68669 36.1101 9.93466L34.4538 17H37.9395L39.7567 9.24605C40.1739 7.46261 40.055 6.17662 39.397 5.38917C38.6365 4.46378 37.383 4 35.6355 4Z" fill="#6A7384"></path><path fill-rule="evenodd" clip-rule="evenodd" d="M84 17H87.6253L90 7H86.3737L84 17Z" fill="#6A7384"></path><path fill-rule="evenodd" clip-rule="evenodd" d="M87.9751 1L87.2578 4.43369H84.5355L84 7H94L87.9751 1Z" fill="#6A7384"></path><path fill-rule="evenodd" clip-rule="evenodd" d="M78.6361 4C77.1131 4 75.6271 4.50614 74.1759 5.51842L70.9649 4.35082L68 17H71.4846L72.9153 10.8959C73.2852 9.31882 73.7813 8.21531 74.4013 7.58317C75.0347 6.94344 75.9263 6.62303 77.0783 6.62303C78.138 6.62303 78.8113 6.86524 79.0983 7.35074C79.3965 7.82647 79.4017 8.68669 79.1106 9.93466L77.4544 17H80.939L82.7561 9.24605C83.1742 7.46261 83.0553 6.17662 82.3953 5.38917C81.6369 4.46378 80.3814 4 78.6361 4Z" fill="#6A7384"></path><path fill-rule="evenodd" clip-rule="evenodd" d="M59 9C59.1996 8.68866 59.4414 8.41171 59.7254 8.16636C60.0094 7.92286 60.3242 7.71468 60.671 7.54554C61.0311 7.36617 61.4067 7.23327 61.8029 7.14405C62.2 7.04833 62.6116 7 63.0355 7C64.8928 7 65.8806 7.66636 66 9H59ZM63.1143 4C60.9063 4 58.9868 4.59379 57.36 5.78137C55.7384 6.98586 54.6928 8.56014 54.2191 10.5053C53.7424 12.4694 54.0433 14.0437 55.1241 15.2303C56.2079 16.4104 57.8792 17 60.141 17C63.9923 17 66.9305 14.5889 67.2294 14.3237L65.5684 13.9243C65.1734 14.0163 63.0264 14.6586 60.8825 14.46C58.1812 14.2096 57.5637 12.1736 57.7158 11.1625H68.578L68.7569 10.4926C69.2502 8.46294 68.9927 6.87598 67.9854 5.73066C66.9687 4.57689 65.3461 4 63.1143 4Z" fill="#6A7384"></path></svg>
